Coordinates
version=1
nRows=7
nColumns=40
inDegrees=yes

Units are S.I. units (second, meters, Newtons, ...)
If the header above contains a line with 'inDegrees', this indicates whether rotational values are in degrees (yes) or radians (no).

endheader
time	pelvis_tilt	pelvis_list	pelvis_rotation	pelvis_tx	pelvis_ty	pelvis_tz	hip_flexion_r	hip_adduction_r	hip_rotation_r	knee_angle_r	knee_angle_r_beta	ankle_angle_r	subtalar_angle_r	mtp_angle_r	hip_flexion_l	hip_adduction_l	hip_rotation_l	knee_angle_l	knee_angle_l_beta	ankle_angle_l	subtalar_angle_l	mtp_angle_l	lumbar_extension	lumbar_bending	lumbar_rotation	arm_flex_r	arm_add_r	arm_rot_r	elbow_flex_r	pro_sup_r	wrist_flex_r	wrist_dev_r	arm_flex_l	arm_add_l	arm_rot_l	elbow_flex_l	pro_sup_l	wrist_flex_l	wrist_dev_l
      2.30666667	     10.15176503	     -2.23296094	      1.03775968	     -0.48573303	      0.87972610	     -0.29300907	    -21.22976858	     -0.51647343	    -13.90212107	     17.63633193	      0.30781206	     13.17010271	      0.00000000	      0.00000000	     16.17629842	     -1.29726340	     -1.04816916	     16.50587960	      0.28808195	     13.71882733	      0.00000000	      0.00000000	    -21.87072065	      7.96322944	      1.72850308	      0.00000000	     -9.93693802	      0.00000000	     74.92351814	     45.16621255	      0.00000000	      0.00000000	      0.00000000	     -9.93693802	      0.00000000	     74.92351814	     45.16621255	      0.00000000	      0.00000000
      2.31333333	     10.34401339	     -1.93696798	      0.94667678	     -0.47678127	      0.87931615	     -0.29420931	    -21.20155731	     -1.28483772	    -14.31818060	     19.33983553	      0.33754381	     12.89144397	      0.00000000	      0.00000000	     15.92240539	     -0.81983798	     -0.95025441	     17.33681550	      0.30258451	     13.70252600	      0.00000000	      0.00000000	    -21.88594317	      7.51641706	      1.63161000	      0.00000000	     -9.95043449	      0.00000000	     74.92391718	     45.16382057	      0.00000000	      0.00000000	      0.00000000	     -9.95043449	      0.00000000	     74.92391718	     45.16382057	      0.00000000	      0.00000000
      2.32000000	     10.52098049	     -1.61384828	      0.88964907	     -0.46785623	      0.87898469	     -0.29552946	    -21.09821500	     -2.08642687	    -14.66584988	     21.11884152	      0.36859332	     12.45048071	      0.00000000	      0.00000000	     15.67911179	     -0.31143877	     -0.85023561	     18.19999949	      0.31764991	     13.56718074	      0.00000000	      0.00000000	    -21.94539142	      7.12481059	      1.53257205	      0.00000000	     -9.96136554	      0.00000000	     74.92423962	     45.16190438	      0.00000000	      0.00000000	      0.00000000	     -9.96136554	      0.00000000	     74.92423962	     45.16190438	      0.00000000	      0.00000000
      2.32666667	     10.62465369	     -1.20372055	      0.82038642	     -0.45887914	      0.87869539	     -0.29694549	    -20.79832068	     -3.04525404	    -15.11470113	     23.12864144	      0.40367094	     11.77637067	      0.00000000	      0.00000000	     15.44541031	      0.30456543	     -0.71684727	     18.98294620	      0.33131491	     13.37392016	      0.00000000	      0.00000000	    -21.86839391	      6.61132261	      1.40783622	      0.00000000	     -9.97328250	      0.00000000	     74.92459039	     45.15983607	      0.00000000	      0.00000000	      0.00000000	     -9.97328250	      0.00000000	     74.92459039	     45.15983607	      0.00000000	      0.00000000
      2.33333333	     10.92235075	     -0.94321279	      0.84054708	     -0.45008933	      0.87873708	     -0.29832653	    -20.77282271	     -3.67840791	    -15.14337923	     24.85732323	      0.43384213	     11.31546775	      0.00000000	      0.00000000	     15.03790473	      0.74923783	     -0.45371254	     19.87302278	      0.34684968	     13.26610886	      0.00000000	      0.00000000	    -22.21661251	      6.25491453	      1.32410512	      0.00000000	     -9.97787785	      0.00000000	     74.92472544	     45.15904406	      0.00000000	      0.00000000	      0.00000000	     -9.97787785	      0.00000000	     74.92472544	     45.15904406	      0.00000000	      0.00000000
      2.34000000	     10.79468181	     -0.23907483	      0.70463930	     -0.44104282	      0.87840716	     -0.29993600	    -19.91442110	     -5.18078839	    -15.97418699	     27.47132212	      0.47946502	      9.83348776	      0.00000000	      0.00000000	     14.89489360	      1.69863300	     -0.37445573	     20.39985836	      0.35604470	     13.05413788	      0.00000000	      0.00000000	    -21.70013237	      5.40583685	      1.10290216	      0.00000000	     -9.99291024	      0.00000000	     74.92516641	     45.15647583	      0.00000000	      0.00000000	      0.00000000	     -9.99291024	      0.00000000	     74.92516641	     45.15647583	      0.00000000	      0.00000000
      2.34666667	     10.90147952	      0.24832753	      0.67535867	     -0.43219761	      0.87844397	     -0.30149309	    -19.40426386	     -6.25346989	    -16.34286486	     29.68542771	      0.51810845	      7.35617050	      0.00000000	      0.00000000	     14.55763644	      2.38455829	     -0.23634740	     21.06726015	      0.36769305	     12.83466904	      0.00000000	      0.00000000	    -21.66865126	      4.83679075	      0.84217266	      0.00000000	    -10.04314522	      0.00000000	     74.92663046	     45.14814999	      0.00000000	      0.00000000	      0.00000000	    -10.04314522	      0.00000000	     74.92663046	     45.14814999	      0.00000000	      0.00000000
